<?xml version="1.0" encoding="iso-8859-1"?> <!DOCTYPE svg PUBLIC "-//W3C//DTD SVG 1.1//EN"
 "http://www.w3.org/Graphics/SVG/1.1/DTD/svg11.dtd">
<svg xmlns="http://www.w3.org/2000/svg" version="1.1" width="800pt" height="800pt" viewBox="0 0 800 800">
  <g fill="none" stroke="black">
    <line x1="400" y1="400" x2="800" y2="400"/>
    <line x1="400" y1="400" x2="800" y2="400"/>
    <line x1="400" y1="400" x2="682" y2="117"/>
    <line x1="400" y1="400" x2="682" y2="682"/>
    <line x1="400" y1="400" x2="400" y2="0"/>
    <line x1="400" y1="400" x2="400" y2="800"/>
    <line x1="400" y1="400" x2="117" y2="117"/>
    <line x1="400" y1="400" x2="117" y2="682"/>
    <line x1="400" y1="400" x2="0" y2="399"/>
    <line x1="400" y1="400" x2="0" y2="400"/>
    <line x1="400" y1="400" x2="117" y2="682"/>
    <line x1="400" y1="400" x2="117" y2="117"/>
    <line x1="400" y1="400" x2="399" y2="800"/>
    <line x1="400" y1="400" x2="399" y2="0"/>
    <line x1="400" y1="400" x2="682" y2="682"/>
    <line x1="400" y1="400" x2="682" y2="117"/>
    <line x1="400" y1="400" x2="769" y2="246"/>
    <line x1="400" y1="400" x2="769" y2="553"/>
    <line x1="400" y1="400" x2="553" y2="30"/>
    <line x1="400" y1="400" x2="553" y2="769"/>
    <line x1="400" y1="400" x2="246" y2="30"/>
    <line x1="400" y1="400" x2="246" y2="769"/>
    <line x1="400" y1="400" x2="30" y2="246"/>
    <line x1="400" y1="400" x2="30" y2="553"/>
    <line x1="400" y1="400" x2="30" y2="553"/>
    <line x1="400" y1="400" x2="30" y2="246"/>
    <line x1="400" y1="400" x2="246" y2="769"/>
    <line x1="400" y1="400" x2="246" y2="30"/>
    <line x1="400" y1="400" x2="553" y2="769"/>
    <line x1="400" y1="400" x2="553" y2="30"/>
    <line x1="400" y1="400" x2="769" y2="553"/>
    <line x1="400" y1="400" x2="769" y2="246"/>
   </g>
  <g fill="none" stroke="#D51">
    <line x1="589" y1="321" x2="784" y2="321" stroke-width="4"/>
    <line x1="589" y1="478" x2="784" y2="478"/>
    <line x1="478" y1="210" x2="616" y2="72"/>
    <line x1="478" y1="589" x2="616" y2="727"/>
    <line x1="321" y1="210" x2="321" y2="15"/>
    <line x1="321" y1="589" x2="321" y2="784"/>
    <line x1="210" y1="321" x2="72" y2="183"/>
    <line x1="210" y1="478" x2="72" y2="616"/>
    <line x1="210" y1="478" x2="15" y2="478"/>
    <line x1="210" y1="321" x2="15" y2="321" stroke-width="4"/>
    <line x1="321" y1="589" x2="183" y2="727"/>
    <line x1="321" y1="210" x2="183" y2="72"/>
    <line x1="478" y1="589" x2="478" y2="784"/>
    <line x1="478" y1="210" x2="478" y2="15"/>
    <line x1="589" y1="478" x2="727" y2="616"/>
    <line x1="589" y1="321" x2="727" y2="183"/>
    <line x1="589" y1="321" x2="511" y2="400"/>
    <line x1="589" y1="478" x2="511" y2="400"/>
    <line x1="478" y1="210" x2="478" y2="321"/>
    <line x1="478" y1="589" x2="478" y2="478"/>
    <line x1="321" y1="210" x2="400" y2="288"/>
    <line x1="321" y1="589" x2="400" y2="511"/>
    <line x1="210" y1="321" x2="321" y2="321" stroke-width="4"/>
    <line x1="210" y1="478" x2="321" y2="478"/>
    <line x1="210" y1="478" x2="288" y2="399"/>
    <line x1="210" y1="321" x2="288" y2="400"/>
    <line x1="321" y1="589" x2="321" y2="478"/>
    <line x1="321" y1="210" x2="321" y2="321"/>
    <line x1="478" y1="589" x2="399" y2="511"/>
    <line x1="478" y1="210" x2="399" y2="288"/>
    <line x1="589" y1="478" x2="478" y2="478"/>
    <line x1="589" y1="321" x2="478" y2="321" stroke-width="4"/>
    <line x1="511" y1="400" x2="456" y2="376"/>
    <line x1="511" y1="400" x2="456" y2="423"/>
    <line x1="478" y1="321" x2="423" y2="343" stroke-width="4"/>
    <line x1="478" y1="478" x2="423" y2="456"/>
    <line x1="400" y1="288" x2="376" y2="343"/>
    <line x1="400" y1="511" x2="376" y2="456"/>
    <line x1="321" y1="321" x2="343" y2="376"/>
    <line x1="321" y1="478" x2="343" y2="423"/>
    <line x1="288" y1="399" x2="343" y2="423"/>
    <line x1="288" y1="400" x2="343" y2="376"/>
    <line x1="321" y1="478" x2="376" y2="456"/>
    <line x1="321" y1="321" x2="376" y2="343" stroke-width="4"/>
    <line x1="399" y1="511" x2="423" y2="456"/>
    <line x1="399" y1="288" x2="423" y2="343"/>
    <line x1="478" y1="478" x2="456" y2="423"/>
    <line x1="478" y1="321" x2="456" y2="376"/>
    <line x1="456" y1="376" x2="433" y2="400"/>
    <line x1="456" y1="423" x2="433" y2="400"/>
    <line x1="423" y1="343" x2="423" y2="376"/>
    <line x1="423" y1="456" x2="423" y2="423"/>
    <line x1="376" y1="343" x2="400" y2="366" stroke-width="4"/>
    <line x1="376" y1="456" x2="400" y2="433"/>
    <line x1="343" y1="376" x2="376" y2="376"/>
    <line x1="343" y1="423" x2="376" y2="423"/>
    <line x1="343" y1="423" x2="366" y2="400"/>
    <line x1="343" y1="376" x2="366" y2="400"/>
    <line x1="376" y1="456" x2="376" y2="423"/>
    <line x1="376" y1="343" x2="376" y2="376"/>
    <line x1="423" y1="456" x2="400" y2="433"/>
    <line x1="423" y1="343" x2="400" y2="366" stroke-width="4"/>
    <line x1="456" y1="423" x2="423" y2="423"/>
    <line x1="456" y1="376" x2="423" y2="376"/>
  </g>
  <g fill="none" stroke="#559">
    <line x1="683" y1="282" x2="776" y2="282" stroke-width="4"/>
    <line x1="683" y1="517" x2="776" y2="517"/>
    <line x1="517" y1="116" x2="583" y2="50"/>
    <line x1="517" y1="683" x2="583" y2="749"/>
    <line x1="282" y1="116" x2="282" y2="23"/>
    <line x1="282" y1="683" x2="282" y2="776"/>
    <line x1="116" y1="282" x2="50" y2="216"/>
    <line x1="116" y1="517" x2="50" y2="583"/>
    <line x1="116" y1="517" x2="23" y2="517"/>
    <line x1="116" y1="282" x2="23" y2="282" stroke-width="4"/>
    <line x1="282" y1="683" x2="216" y2="749"/>
    <line x1="282" y1="116" x2="216" y2="50"/>
    <line x1="517" y1="683" x2="517" y2="776"/>
    <line x1="517" y1="116" x2="517" y2="23"/>
    <line x1="683" y1="517" x2="749" y2="583"/>
    <line x1="683" y1="282" x2="749" y2="216"/>
    <line x1="683" y1="282" x2="650" y2="400"/>
    <line x1="683" y1="517" x2="650" y2="400"/>
    <line x1="517" y1="116" x2="577" y2="222"/>
    <line x1="517" y1="683" x2="577" y2="577"/>
    <line x1="282" y1="116" x2="400" y2="149"/>
    <line x1="282" y1="683" x2="400" y2="650"/>
    <line x1="116" y1="282" x2="222" y2="222" stroke-width="4"/>
    <line x1="116" y1="517" x2="222" y2="577"/>
    <line x1="116" y1="517" x2="149" y2="399"/>
    <line x1="116" y1="282" x2="149" y2="400"/>
    <line x1="282" y1="683" x2="222" y2="577"/>
    <line x1="282" y1="116" x2="222" y2="222"/>
    <line x1="517" y1="683" x2="399" y2="650"/>
    <line x1="517" y1="116" x2="399" y2="149"/>
    <line x1="683" y1="517" x2="577" y2="577"/>
    <line x1="683" y1="282" x2="577" y2="222" stroke-width="4"/>
    <line x1="650" y1="400" x2="589" y2="321"/>
    <line x1="650" y1="400" x2="589" y2="478"/>
    <line x1="577" y1="222" x2="478" y2="210" stroke-width="4"/>
    <line x1="577" y1="577" x2="478" y2="589"/>
    <line x1="400" y1="149" x2="321" y2="210"/>
    <line x1="400" y1="650" x2="321" y2="589"/>
    <line x1="222" y1="222" x2="210" y2="321"/>
    <line x1="222" y1="577" x2="210" y2="478"/>
    <line x1="149" y1="399" x2="210" y2="478"/>
    <line x1="149" y1="400" x2="210" y2="321"/>
    <line x1="222" y1="577" x2="321" y2="589"/>
    <line x1="222" y1="222" x2="321" y2="210" stroke-width="4"/>
    <line x1="399" y1="650" x2="478" y2="589"/>
    <line x1="399" y1="149" x2="478" y2="210"/>
    <line x1="577" y1="577" x2="589" y2="478"/>
    <line x1="577" y1="222" x2="589" y2="321"/>
    <line x1="589" y1="321" x2="567" y2="400"/>
    <line x1="589" y1="478" x2="567" y2="400"/>
    <line x1="478" y1="210" x2="518" y2="281"/>
    <line x1="478" y1="589" x2="518" y2="518"/>
    <line x1="321" y1="210" x2="400" y2="232" stroke-width="4"/>
    <line x1="321" y1="589" x2="400" y2="567"/>
    <line x1="210" y1="321" x2="281" y2="281"/>
    <line x1="210" y1="478" x2="281" y2="518"/>
    <line x1="210" y1="478" x2="232" y2="399"/>
    <line x1="210" y1="321" x2="232" y2="400"/>
    <line x1="321" y1="589" x2="281" y2="518"/>
    <line x1="321" y1="210" x2="281" y2="281"/>
    <line x1="478" y1="589" x2="399" y2="567"/>
    <line x1="478" y1="210" x2="399" y2="232" stroke-width="4"/>
    <line x1="589" y1="478" x2="518" y2="518"/>
    <line x1="589" y1="321" x2="518" y2="281"/>
  </g>
</svg>
